# xmcd
#
# Track frame offsets:
#	150
#	17120
#	32302
#	52977
#	80989
#	105589
#	121117
#	134500
#	154283
#	175340
#	192665
#	211897
#
# Disc length: 3150 seconds
# Revision: 0
# Processed by: cddbd v1.5.2PL0 Copyright (c) Steve Scherf et al.
# Submitted via: dBpowerAMP V12.0
#
DISCID=a20c4c0c
DTITLE=CHARLIE LANKESTER - THE REAL, REAL GONE
DYEAR=2015
DGENRE=Blues
TTITLE0=GREED
TTITLE1=DRINK MY BLUES AWAY
TTITLE2=BRIXTON ROAD
TTITLE3=OUT THERE
TTITLE4=THE SPINNING OF THE WHEEL
TTITLE5=IN MY TIME OF DYING
TTITLE6=SONG IN A MINOR KEY
TTITLE7=RIO GRANDE
TTITLE8=BALLAD OF SCARBOROUGH BEACH
TTITLE9=THE REAL, REAL GONE
TTITLE10=TROUBLED MIND
TTITLE11=CLOSED DOOR
EXTD=
EXTT0=
EXTT1=
EXTT2=
EXTT3=
EXTT4=
EXTT5=
EXTT6=
EXTT7=
EXTT8=
EXTT9=
EXTT10=
EXTT11=
PLAYORDER=
